<svg width="24" height="18" viewBox="0 0 24 18" fill="none" xmlns="http://www.w3.org/2000/svg">
<g filter="url(#filter0_d_1_431)">
<path d="M4.29289 1.70711C3.90237 1.31658 3.90237 0.683417 4.29289 0.292893C4.68342 -0.0976315 5.31658 -0.0976315 5.70711 0.292893L4.29289 1.70711ZM12 8L12.7071 8.70711L12 9.41421L11.2929 8.70711L12 8ZM18.2929 0.292893C18.6834 -0.0976315 19.3166 -0.0976315 19.7071 0.292893C20.0976 0.683417 20.0976 1.31658 19.7071 1.70711L18.2929 0.292893ZM5.70711 0.292893L12.7071 7.29289L11.2929 8.70711L4.29289 1.70711L5.70711 0.292893ZM11.2929 7.29289L18.2929 0.292893L19.7071 1.70711L12.7071 8.70711L11.2929 7.29289Z" fill="#3E2E4D"/>
</g>
<defs>
<filter id="filter0_d_1_431" x="0" y="0" width="24" height="17.4142" filterUnits="userSpaceOnUse" color-interpolation-filters="sRGB">
<feFlood flood-opacity="0" result="BackgroundImageFix"/>
<feColorMatrix in="SourceAlpha" type="matrix" values="0 0 0 0 0 0 0 0 0 0 0 0 0 0 0 0 0 0 127 0" result="hardAlpha"/>
<feOffset dy="4"/>
<feGaussianBlur stdDeviation="2"/>
<feComposite in2="hardAlpha" operator="out"/>
<feColorMatrix type="matrix" values="0 0 0 0 0 0 0 0 0 0 0 0 0 0 0 0 0 0 0.25 0"/>
<feBlend mode="normal" in2="BackgroundImageFix" result="effect1_dropShadow_1_431"/>
<feBlend mode="normal" in="SourceGraphic" in2="effect1_dropShadow_1_431" result="shape"/>
</filter>
</defs>
</svg>
