<svg width="139" height="97" viewBox="0 0 139 97" fill="none" xmlns="http://www.w3.org/2000/svg">
<path d="M74.8151 64.0599C73.5028 63.5956 72.0826 63.3698 70.6429 63.396C66.9188 63.422 63.8526 64.8706 63.7949 66.6313C63.7372 68.3921 66.7098 69.7977 70.4339 69.7718C71.8725 69.7777 73.3079 69.5323 74.6515 69.0508C75.2864 68.8092 75.7076 68.2761 75.7259 67.6915L75.8009 65.4041C75.8218 64.8192 75.4347 64.292 74.8151 64.0599Z" fill="#D5D6DB"/>
<path d="M82.4809 37.0032C81.5293 36.6667 80.4993 36.503 79.4553 36.5221C76.7555 36.5409 74.5316 37.5908 74.4898 38.8665C74.448 40.1422 76.6044 41.1617 79.3038 41.1429C80.3471 41.1469 81.388 40.9686 82.3624 40.6195C82.8224 40.4442 83.1275 40.0579 83.1408 39.6341L83.1951 37.9779C83.2104 37.5541 82.9302 37.1716 82.4809 37.0032Z" fill="#D5D6DB"/>
<path d="M71.0257 31.15C70.853 31.0128 70.6239 30.938 70.3833 30.94L64.0416 30.9844C63.5116 30.9874 63.0691 31.3559 63.0534 31.8078C63.0497 31.9113 63.0692 32.0139 63.1109 32.1097L69.448 46.8112L90.5943 46.663L71.0257 31.15Z" fill="#029BC5"/>
<path d="M119.463 60.0258L62.1154 60.111L31.7214 54.5283L17.7707 49.2111L17.861 46.0363L112.93 46.7238C115.767 46.7389 118.53 47.3891 120.939 48.6089C121.99 49.1484 122.954 49.7996 123.809 50.547C124.571 51.2029 125.215 51.9503 125.722 52.7669C126.285 53.6843 127.809 54.7061 127.806 55.8291C127.809 55.8288 126.671 60.2793 119.463 60.0258V60.0258Z" fill="#E1E6E9"/>
<path d="M64.8089 57.0286L29.2355 74.2208C28.7635 74.4797 28.6156 75.0084 28.9048 75.4015C29.0822 75.6427 29.3941 75.7871 29.7334 75.7852L36.062 75.7538C37.2794 75.7475 38.4907 75.5294 39.6211 75.1129L99.5525 56.2055L64.8089 57.0286Z" fill="#029BC5"/>
<path d="M20.5259 27.9236C20.2928 27.6361 19.9068 27.4672 19.4897 27.47L14.2525 27.5052C13.5391 27.5098 12.9445 28.0061 12.9242 28.6139C12.9204 28.7295 12.9378 28.8443 12.9761 28.9539L18.1917 43.9284L33.5345 43.9597L20.5259 27.9236Z" fill="#029BC5"/>
<path d="M20.7559 47.6469L10.1547 52.009C10.0007 52.0707 9.93066 52.2255 9.99837 52.3545C10.0472 52.4476 10.1573 52.5054 10.2786 52.5018L15.1659 52.48C15.2038 52.4799 15.242 52.4737 15.2777 52.4618L29.8128 47.6104L20.7559 47.6469Z" fill="#029BC5"/>
<path d="M122.921 50.4643C122.041 49.6936 121.048 49.0235 119.964 48.4692C118.086 49.2401 116.461 50.4101 115.25 51.8623C115.035 52.1712 115.148 52.5619 115.503 52.735C115.613 52.7887 115.739 52.8169 115.868 52.8167L124.887 52.7568C124.367 51.9125 123.705 51.1407 122.921 50.4643Z" fill="#029BC5"/>
<path d="M104.142 49.1982L110.017 49.181L109.754 58.3055L103.879 58.3228L104.142 49.1982Z" fill="#D5D6DB"/>
<path d="M99.8405 50.1733C99.132 50.1763 98.542 50.6665 98.5232 51.2682L98.4927 52.2431C98.4978 52.8442 99.0767 53.3126 99.7858 53.2892C100.461 53.2668 101.017 52.8049 101.058 52.232L101.088 51.2572C101.107 50.6559 100.549 50.1707 99.8405 50.1733V50.1733Z" fill="#3A556A"/>
<path d="M94.5854 50.1489C93.8769 50.152 93.2869 50.6421 93.268 51.2439L93.2376 52.2187C93.2427 52.8199 93.8216 53.2882 94.5307 53.2649C95.2057 53.2424 95.7617 52.7806 95.8026 52.2077L95.8331 51.2328C95.8516 50.6316 95.2933 50.1464 94.5854 50.1489V50.1489Z" fill="#3A556A"/>
<path d="M89.3285 50.1245C88.6203 50.1283 88.0315 50.6182 88.0127 51.2194L87.9822 52.1943C87.9874 52.7954 88.5662 53.2638 89.2754 53.2404C89.9504 53.2179 90.5063 52.7561 90.5472 52.1833L90.5777 51.2084C90.5965 50.6067 90.0373 50.1215 89.3285 50.1245V50.1245Z" fill="#3A556A"/>
<path d="M84.0734 50.1001C83.3652 50.104 82.7764 50.5939 82.7576 51.1951L82.7271 52.17C82.7322 52.7711 83.3111 53.2395 84.0202 53.2161C84.6952 53.1936 85.2512 52.7318 85.2921 52.1589L85.3226 51.184C85.3411 50.5823 84.7819 50.0971 84.0734 50.1001V50.1001Z" fill="#3A556A"/>
<path d="M78.8186 50.0762C78.11 50.08 77.5209 50.5701 77.5021 51.1716L77.4717 52.1469C77.4529 52.7482 78.0119 53.2332 78.7202 53.2302C79.4285 53.2272 80.0179 52.7373 80.0366 52.1361L80.0671 51.1608C80.0867 50.5595 79.5284 50.074 78.8201 50.0762C78.8195 50.0762 78.8192 50.0762 78.8186 50.0762Z" fill="#3A556A"/>
<path d="M73.5635 50.0519C72.8549 50.0556 72.2658 50.5457 72.247 51.1472L72.2166 52.1225C72.1978 52.7238 72.7568 53.2088 73.4651 53.2058C74.1734 53.2028 74.7627 52.7129 74.7815 52.1117L74.8119 51.1364C74.8316 50.5351 74.2732 50.0496 73.565 50.0519C73.5644 50.0519 73.5638 50.0519 73.5635 50.0519Z" fill="#3A556A"/>
<path d="M68.3081 50.0274C67.5995 50.0312 67.0104 50.5213 66.9916 51.1228L66.9612 52.0981C66.9433 52.6993 67.5032 53.1835 68.2112 53.1798C68.918 53.176 69.5062 52.6872 69.5258 52.0872L69.5562 51.1119C69.5753 50.5104 69.0166 50.025 68.3081 50.0274Z" fill="#3A556A"/>
<path d="M63.0527 50.003C62.3441 50.0068 61.755 50.4969 61.7362 51.0984L61.7058 52.0737C61.6879 52.6749 62.2478 53.1591 62.9558 53.1554C63.6626 53.1516 64.2508 52.6628 64.2704 52.0628L64.3009 51.0875C64.3199 50.486 63.7613 50.0005 63.0527 50.003Z" fill="#3A556A"/>
<path d="M57.7976 49.9787C57.089 49.9824 56.4999 50.4725 56.4811 51.074L56.4507 52.0493C56.4328 52.6505 56.9927 53.1347 57.7007 53.131C58.4075 53.1272 58.9957 52.6384 59.0153 52.0385L59.0457 51.0632C59.0645 50.4617 58.5058 49.9762 57.7976 49.9787Z" fill="#3A556A"/>
<path d="M52.5409 49.9542C51.8326 49.9572 51.2432 50.447 51.2244 51.0483L51.2244 51.0496L51.194 52.0249C51.1761 52.6261 51.736 53.1103 52.444 53.1066C53.1508 53.1028 53.7389 52.614 53.7586 52.014L53.789 51.0387C53.8081 50.4372 53.2494 49.9517 52.5409 49.9542Z" fill="#3A556A"/>
<path d="M47.2871 49.9298C46.5788 49.9328 45.9894 50.4227 45.9707 51.0239L45.9706 51.0252L45.9402 52.0005C45.9224 52.6017 46.4822 53.0859 47.1903 53.0822C47.8971 53.0784 48.4852 52.5896 48.5048 51.9897L48.5353 51.0143C48.554 50.4129 47.9954 49.9274 47.2871 49.9298Z" fill="#3A556A"/>
</svg>
